<svg xmlns="http://www.w3.org/2000/svg" xml:space="preserve" id="Layer_1" x="0" y="0" style="enable-background:new 0 0 423.8 280.3" version="1.1" viewBox="0 0 423.8 280.3"><style>.st0{fill:#e5e9ef}.st1{fill:#4c566a}</style><g id="Text"><path d="M422.6 193.8c-1.4-5.1-1.9-7.3-2.1-8.2-1.2-6.4-4.7-11.4-7.5-14.5-.1-.1-.2-.3-.2-.4 0-.1-.1-.1-.1-.2-1.5-2.5-3.4-4.8-5.8-6.9-.1 0-.1-.1-.2-.1-1.6-1.4-3.2-2.5-4.8-3.4-1-1.4-2.1-2.7-3.3-4-2.5-2.7-6.8-6.3-13.3-8.4-.1-.1-.2-.2-.3-.2-1.8-1.2-3.8-2.3-6.3-3.5-.8-.4-1.7-.8-2.6-1.1 1.2-2.2 2-4.8 2.2-8 .6-9.5-4.3-16.4-8.6-20.4-.2-.2-.5-.4-.7-.6-.2-.2-.5-.4-.7-.6-5.1-4.1-11-6.7-16.9-7.5-.7-.1-2-.3-3.8-.6-1-.7-2.1-1.4-3.1-2 0-.5.1-.9.1-1.3.2-2.6.2-5.2-.1-7.7-.2-1.5-.3-3.3-.5-5.6 4.2-5 5.8-12 4.9-21-.2-1.8-.3-3.3-.5-4.5 1.4-2.8 2-5.9 1.8-9 .1-.1.1-.3.2-.4 4.3-12.5-1-23.2-6.1-29.9-.1-.1-.2-.2-.3-.4-5.3-6.6-12.8-11-21-12.2-4-.6-8.3-.7-13.1-.5 0 0-.9 0-3.2-.8-.2-.1-.5-.2-.7-.3-.2-.1-.5-.1-.7-.2-4.5-1.3-8.8-1.3-13 0-.3-.2-.6-.4-.9-.5-5.3-2.9-11.7-4.3-19-3.9-1.6.1-3.2.2-4.9.3h-.4c-.8-.2-2.5-.6-6.1-1.5-2.5-.7-5.2-1.3-8.1-1.7-3.5-.6-7.3-.8-11.2-.7-6.7.2-12.4 2.4-16.2 6.1-2.3-1.6-5-3.1-8.5-4.6-4.6-2-9.3-2.9-14-2.9-3.9.1-7.6.6-11 1.8-2.9.9-5.5 2.1-7.8 3.6-4.4-.3-8.8.4-12.9 1.8-4.9 1.8-8.2 4.2-10.4 6.5-.3-.4-.7-.8-1-1.1-5.9-6-15.6-8.4-29-6.8-4.8.6-9.4 1.7-13.8 3.2-2.2.8-4.3 1.7-6.2 2.8-.2-.1-.5-.2-.8-.3-4.6-1.4-9.9-1.5-15.8 0-4.2-.9-8.9-.7-13.7.8-6.1 1.9-11.7 5.1-16.1 9.3-3.5 3.3-7.9 9-8.9 16.7-.4 3.3-.5 6.5-.3 9.7.1 2.1.2 3.9.1 5.6-.1 2.1-.1 4.2-.1 6.3 0 2.2 0 4.3.2 6.1.2 2.4.5 4.4 1.1 6.2.1.4.2 1.5.2 3.8v.6c.1 1.5.3 3.2.6 5 .4 2.6 1.3 5.3 2.9 8.6-1.5 3.4-2.3 7.1-2.3 11.6 0 3 .1 6.2.3 9.4.2 3.3.6 6.2 1 8.8.2 1.4.5 2.9 1.1 4.3-1.2 3.9-.8 7.5-.1 10.4.3 1.2.5 2.3.8 3.1-2.3 0-4.9.3-7.8 1-4.7 1.1-9.3 3.5-15.9 8.2-.3.2-.5.4-.6.4-1.9.8-3.9 1.7-5.9 2.7-7.6 3.4-14.3 8.8-19.5 15.4-5.4 6.8-8.3 13.7-8.9 20.3v.8c0 2 .1 3.9.3 5.8.1 1 .2 2.1.2 3.1v.3c-.5 1.4-1.1 3.2-1.8 5.3-2.3 6.8-1.2 12.4 3.1 16 .8.7 1.7 1.4 2.9 2 .3.8.7 2 1.2 3.9 1.4 4.8 4.4 8.6 9 11.4-1.9 1.4-3.7 2.9-5.6 4.7l-.9.9c-4.7 4.9-7.5 10.5-7.7 15.6-.1 1.5-.1 3.1-.2 4.9v1.6c-.7 4.1.2 7.7 2.7 10.5 2.9 3.3 7.8 4.5 13.7 3.7 1.2.8 2.5 1.5 3.9 2.1 3.9 1.7 8.5 2.3 13.5 1.7 2.9-.3 6.4-1 11.1-2.1.3-.1.6-.1.9-.2 5-1.2 9.9-2.9 14.5-5 6.4-3 11.8-7.1 15.5-11.9.5-.6.9-1.2 1.3-1.8 3.9-2.7 7.2-6.1 10.2-10.5.4-.5.7-1.1 1-1.6 1.5 3.4 3 5.9 4.7 7.8.2.3.5.5.7.8 3.4 3.3 7.6 5.1 12.5 5.6.4 0 .9.1 1.4.2 3.5 1.6 7.9 2.3 13.4 2.3 8 0 14.6-1.6 19.7-3.8 2.5 1.5 5.8 2.9 9.7 3.4.5 0 .9.1 1.4.1 1.3.1 2.6.1 3.8 0 11.6-.9 19.2-9.2 21.9-12.1l.1-.1c1.2-1.3 2.2-2.4 3-3.3.5-.5.9-1 1.3-1.5 7.9 6.6 18.9 9.2 31.5 8 2.7 2 5.9 3.4 9.5 4.3 1.7.4 3.4.6 4.9.6 7.4.2 13-2.9 15.1-4.1.2-.1.4-.3.7-.4.3-.2.5-.3.8-.5 3.6-.4 6.9-1.3 9.9-2.9.7-.3 1.4-.7 2.1-1.1 3.5 6.3 9.9 10.4 17.6 11.5 2 .8 4.1 1.4 6.3 1.8.7.1 1.3.2 2 .3 1.9.2 3.9.2 5.9 0 .4.1.7.1 1.1.2 4.8.9 9.7.6 14.8-.7.3-.1.5-.1.6-.1 1.4-.1 3.2-.2 5.2-.4 4.3-.3 8.2-1.4 11.6-3.1.4-.2.7-.4 1.1-.5.3-.2.6-.5.9-.7.7-.5 1.3-1.1 1.9-1.7 3.7 7.4 10.9 12.2 17.6 14.7 1.9.7 3.8 1.3 5.7 1.7 2.4.5 4.8.7 7.2.7 2.9 0 5.4-.3 7.7-.9.9 0 1.8-.1 2.7-.2 2.7-.2 5.3-.9 7.7-2 2.1-1 4.1-2.3 6.1-4.3.1 0 .2-.1.3-.2 5.9.5 11.9-.8 16.3-5.6.2-.2.4-.5.6-.7 1.2-1.7 2.2-3.4 3-5.3.6-1.4 1.1-2.9 1.5-4.2.1-.2.4-.7 1-1.4.5-.6 1.1-1.2 1.7-1.9 1.1-1.1 2.3-2.7 3.8-5 1.8-2.6 3.3-5.9 4.3-9.7.7-2.4 1.3-4.3 2-5.8 1.1-2.4 2.1-5.3 2.9-8.7.1-.3.1-.6.2-.9 0-.3.2-1.4 1.1-3.6 2.5-6.2 2.7-12.8.8-19.8z"/><path d="M226.2 119.3c2.3-.4 3.6-2.3 3.9-5.6.3-3.3.3-6.6-.1-9.9-.1-1.2-.2-2.4-.4-3.5-.1-1.1-.2-2.5-.2-4.1s-.4-4.9-1.1-9.7c-.5-2.6-.6-4.8-.2-6.6.2-1.2.4-2.3.4-3.1s-.1-1.7-.3-2.7-.2-1.9-.1-2.8c.6-3.1-.1-6-2.2-8.7-1.1-1.4-1.7-2.7-1.9-4s-.1-2.9.2-4.9.1-3.6-.6-5c-.7-1.3-1.2-2.7-1.3-4.3-.1-.6-.2-1.2-.2-1.9s-.2-1.9-.7-3.8-.5-3.8 0-5.7c.5-1.9.5-3.6 0-5s-.7-2.7-.6-3.7c.1-1.1-.3-2.3-1.2-3.6-.9-1.4-1.5-2.4-1.8-3.2-.4-.8-1.1-1.8-2.2-3-1.1-1.3-3.3-2.6-6.7-4-2.1-.9-4-1.3-5.8-1.2-1.8 0-3.5.3-4.9.7-1.5.5-2.7 1-3.7 1.7s-2 1.4-2.9 2.2c-.9.7-2 1.2-3.3 1.3-1.3.1-2.9 0-4.9-.4-2-.3-4-.2-5.9.5s-3.1 1.6-3.5 2.6c-5.6 11.3-8.7 19.7-9.3 24.9-.1 1.1-.2 2.1-.1 3.1s.1 2.4.3 4.2c.1 1.8-.9 4.1-3.1 7.1-.9 1.1-1.6 2.4-2.3 3.8s-.9 3-.6 4.9c.2 1.9-.1 4.8-1.1 8.7-.4 1.6-.7 3.1-1.1 4.5-.4 1.5-.6 2.8-.6 3.9-.1 1.1-.2 2.1-.5 2.9-.2.8-.5 1.7-.6 2.6-.2.9-.3 1.9-.5 2.9-.1 1.1-.1 2.6 0 4.6s0 4-.5 6.1c-.4 2.1-.2 3.8.6 5.1.8 1.4 1.4 4.1 1.6 8.1.1 2 .5 3.6 1.1 4.8 1 2 3.9 2.4 8.9 1.2 1.8-.5 3.4-1.8 4.8-3.8 1.2 0 2.4 0 3.5-.2 1.3-.3 2.5-1.6 3.5-4.1.5-1 .8-2 1-3s.2-2 0-3.1c-.2-1 0-2.2.5-3.5s.9-2.5 1.3-3.7c.4-1.2 1.5-2.3 3.3-3.2 1-.5 1.9-.8 2.8-1-.7-.5-1.2-1-1.7-1.4-.4-.4-.4-1 .1-1.3s1.2-.3 1.6 0c1.2 1 2.9 2.6 4.7 2.5.4-.1.8-.3 1.2-.5 1-.7 1.8-1.4 2.5-2.3.7-.9 1.4-1.6 2.2-2.3.8-.6 1.9-.8 3.3-.4s2.5.9 3.4 1.6c.8.7 1.2 2 1 3.8s0 3.2.6 4c.1.2.3.5.5.8s.3 1.1.3 2.4c0 1.3.2 2.3.6 2.9.4.7 1.2 1.7 2.4 3s1.5 2.9 1 4.6c-.1.8-.1 1.6 0 2.4.1.8.7 1.9 1.8 3.2s2.2 2 3.3 1.9c.5-.1 1-.2 1.6-.3.5-.1 1.4.2 2.7 1 1.2.7 2.4.8 3.7.3.8-.5 1.7-1.2 2.5-2.3zm-27.7-50.4c-.1.6-.5 1.4-1.3 2.2s-1.9 1.3-3.4 1.4c-.6.1-1.3.2-2.2.3s-2.1.3-3.8.8c-1.7.4-3.1 0-4.3-1.3s-1.3-3.3-.4-6.2c.9-2.8 1.6-5.2 1.9-7.1.2-1.6.7-3.1 1.4-4.5s1.1-2.9 1.4-4.5c0-2.4.4-4.1 1.3-5.2 1.2-1.5 2.8-1.5 4.7 0 1.7-1.2 2.7-1 3.1.5.2 1 .4 2.1.4 3.4s.2 3.3.6 6c.4 2.7.5 4.9.3 6.8-.2 1.8-.2 3.7.2 5.6.1.5.2 1.2.1 1.8zm6-42c-.2.5-.9.7-1.5.6-.8-.2-1.4-.2-2 .1-.7.3-1.3 1.1-1.6 2.2-.5 1.7-1.8 3.6-3.8 4-.2 0-.5.1-.7.1-1 0-2.3-.3-3.7-1.6-3.4-3.1-3.3-9.6-3.3-9.9 0-.5.6-.9 1.2-1 .6 0 1.2.4 1.2.9 0 .1-.1 6.1 2.8 8.7.5.4 1.3 1.1 2.1.9s1.7-1.3 2.1-2.6c.5-1.6 1.4-2.8 2.8-3.4 1.1-.5 2.4-.6 3.8-.2.5.2.8.7.6 1.2zM138.1 110.5h-.2c-2.3-.3-3.5-3-3.5-8.7 0-.5.5-1 1.2-1.1.6-.1 1.2.3 1.2.8.1 6.7 1.7 7.1 1.8 7.1s.3 0 .5-.1l.2-.2c3.2-3.2 4.2-6 3.1-8.5-.6-1.2-.9-2.3-.9-3.2 0-1 0-1.9.1-3 .1-1 .1-2 .2-2.9.1-.9-.1-1.7-.4-2.3-1.3-2.4-.9-6.1 1.1-11.2.9-2.4 1.3-7.9 1.3-16.7 0-4.9.2-9.5.6-13.9.1-2.6.3-5 .7-7.3.3-2.2.8-4.5 1.6-6.9.7-2.4.9-4.7.6-7-.1-.9-.1-1.6 0-2.2s.2-1.5.2-2.7-.5-2.3-1.6-3.3c-2.4-2.4-7.4-3.3-15-2.4-3.3.4-6.3 1.1-9.1 2.1s-4.9 2.2-6.2 3.7c-1.3 1.4-2 4.5-2 9.2 0 2 .1 4 .2 5.9.2 1.9.4 3.7.7 5.3.3 1.6.3 3.5.1 5.5-.3 2-.2 4.1.1 6.1.3 2 .3 3.5-.1 4.4-.9 2-2.6 3.3-5.3 3.7-1.6.2-2.8.1-3.8-.3-.7-.3-1.3-.7-1.8-1.3-.5-.6-.5-1.9-.1-3.9s.5-4 .3-6.1-.2-3.9.2-5.6c.4-1.6.6-4.4.6-8.4v-4.3c0-1.2.1-2.4.4-3.5.2-1.1.1-2.4-.3-4-1.3-4.3-6.2-4.8-14.7-1.2-2-1.7-4.4-2.2-7.1-1.4-2.7.8-5 2.1-6.8 3.8-1.9 1.7-2.9 3.9-3.3 6.4-.3 2.6-.4 5.1-.2 7.5.2 2.5.2 4.7.1 6.7s-.1 4-.1 5.9 0 3.7.1 5.4c.1 1.7.3 2.9.7 3.8.4.9.6 3.1.7 6.6.1 1.3.3 2.8.5 4.4.2 1.6 1 3.7 2.4 6.3 1.4 2.6 1.2 5.6-.5 9-.7 1.5-1.1 3.6-1.1 6.3s.1 5.6.3 8.5c.2 2.9.5 5.5.9 7.9.4 2.3.8 3.6 1.3 3.8s.7 1 .6 2.2c-.1 1.3-.4 2.3-1 3.1s-.6 2.5 0 5.1c.2 1.1.5 2 .7 2.7s1 1.1 2.2 1.2c1.3.1 2.2.4 3 .9.7.5 1.7 1.3 2.9 2.3 1.2 1 3.7 1 7.6.1 1.7-.3 3.3-.7 4.7-1.2 1.4-.5 2.4-1.2 3-1.9.5-.7 1-5.9 1.4-15.7.1-4 .2-7.9.2-11.8 0-3.9 0-6.9-.1-9.1 1-1.2 2.8-2.1 5.4-2.7 1.2-.3 2.4-.4 3.4-.2 1.1.1 1.9.8 2.3 2 .5 1.2.6 3.4.2 6.6-.3 3.2-.9 8-1.7 14.4-.8 6.4-.5 10.5.9 12.4 1.7 2.3 5.7 2.7 12.1 1.4 2.5-.5 4.9-1.2 7-2s3.5-1.5 4.2-2.1 1-1.5 1-2.6-.1-2.8-.2-5.2c0-.5.1-1.5.3-2.4zM281.1 115.2c.1-.7.2-1.5.3-2.4.1-1 .3-2.3.8-3.9.8-2.9.8-4.9 0-6-.5-.5-1.5-.9-3.1-1-1.7-.2-3-1.1-3.8-2.8 1-5.3 1.4-11 1.4-17.1-.1-8-.3-16-.4-24.1 0-8.3.4-13.1 1.4-14.2.6-.6 1.3-.9 2.1-.9h2.4c.8 0 1.6-.2 2.4-.5s1.7-1.5 2.7-3.6.9-4.9-.2-8.4c-.4-1.6-.5-3-.3-4.3s.3-2.6.3-3.8c0-1.2-.2-2.3-.6-3.5-.4-1.1-1.5-2.1-3.3-3.1s-4.3-1.4-7.7-1.2c-1.4.1-2.9.1-4.4.2s-2.9.1-4.1 0c-1.6-.1-4.9-.9-10-2.2-1.9-.5-4-1-6.3-1.3-2.2-.4-4.7-.5-7.3-.4s-4.3.9-5 2.4c-.2.7-.4 1.4-.5 2.3s-.5 1.9-1.3 3.1c-.7 1.2-.9 2.9-.5 5.2.4 2.2.4 4.7 0 7.3-.2 1.8.1 3.3.8 4.5 0 0 .1 0 .1.1 0 0 2.2 2.2 5.2 2.5 1.9.2 3.8-.4 5.6-1.7.5-.3 1.2-.3 1.6.1.4.4.4 1 0 1.3-1.3.9-2.6 1.5-3.9 1.9.5.2.8.5 1 .9.1.4.2 1 .2 1.7 0 .8-.1 1.8-.2 3.2-.1 1.8.1 5 .6 9.5.4 2.3.4 5.3.2 8.9-.4 6 .3 10.2 1.8 12.5 1.6 1.9 1.8 4.1.6 6.6-.7 1.7-1.1 4.6-1.3 8.9-.1 1.5-.2 3.2-.3 4.9-.1 1.8-.5 2.8-1.2 3-.6.1-1.3.2-2 .3s-1.5.3-2.4.5-1.6.6-2.2 1.2c-.6.6-1 1.9-1.3 4-.2 2.1-.2 4.3.2 6.6.7 5.8 2.2 8.7 4.4 8.8 1.6.1 3.3.4 5.1 1.1.6.2 1.2.4 1.8.5s1.4 0 2.5-.2c1-.2 1.9-.3 2.7-.2.8.1 1.9.2 3.5.4 1.5.2 3.4 0 5.6-.7 1.5-.5 2.8-.8 4-.9 1.2-.1 2.8-.3 4.6-.6 1.9-.3 3.6-.8 5.2-1.7 1.4-1.4 2.2-2.6 2.5-3.7zM267 18.6c-.3.6-.9.6-1.5.6-.4 0-.8-.1-1.1-.2-.6-.1-1-.7-.9-1.1 0-.1.1-.2.1-.2-.4-.2-.9-.5-1.4-.8-.6-.3-.8-.9-.5-1.3s1-.5 1.6-.3c3.9 2.1 4 2.7 3.7 3.3zM343.4 129.2c.8-.4 1.9-.4 3.1-.1 1.2.3 2.5.7 3.8 1.1 1.3.4 2.6.8 4 1 1.3.3 2.8.1 4.3-.4 1.5-.6 2.4-2.4 2.6-5.5.2-3.3-.7-5.9-2.7-7.8-1.7-1.3-3.4-2.1-5.2-2.3-1.8-.2-4-.6-6.6-1.1s-5.1-1.6-7.4-3.2c-1-.7-1.9-1.3-2.9-1.8-1-.6-2.3-1-4-1.3s-3.2-.3-4.7-.1c-.4-2.6-.6-5.2-.6-7.8s.1-4.9.2-6.9c.2-1.9.2-3.8 0-5.5s-.4-3.9-.6-6.5c-.1-1.4 0-2.6.4-3.7-.2 0-.4 0-.6-.1-.3-.1-.7-.2-1.1-.3-1.4-.6-3.2-2.1-3.3-6 0-.9-.2-1.4-.3-1.5-.5 0-1-.3-1.2-.8s0-1 .6-1.1c.4-.1 1.1 0 1.8.5.9.6 1.4 1.7 1.4 3.3.1 2.1.7 3.6 1.7 4 .7.3 1.7 0 2.2-.4l.5-.5c2.6-3 3.6-7.5 2.9-13.7-.3-2.4-.4-4.3-.6-5.7-.1-1.4.2-2.8 1-4.2.8-1.4 1.1-2.9 1-4.3s.1-2.8.7-4.3c2.1-6.2 1-12.1-3.3-17.7-1.9-2.4-4.2-3.7-6.9-4.1-2.6-.4-5.7-.5-9.3-.3-3.5.2-7.5-.5-12-2.1-1.3-.4-3.1.2-5.4 1.7-1.2.8-1.8 1.7-1.8 2.8.1 12.2.6 22.2 1.8 30.1 0 .9.2 1.6.7 2.1s1 1.1 1.6 1.8c3.1 3.5 3.2 7.9.1 13.2-1 1.7-1.4 3.1-1.2 4.2.7 3.7.9 7.2.6 10.3-.1 1.8.3 4.4 1.1 7.8.4 1.3.8 3 1.3 5.2s.6 5.5.2 10c-.3 3.2-.1 5.5.8 7 .4.6.7 1.4 1 2.4s.7 2 1.2 3.1c2.6 5.5 7.4 7.7 14.5 6.7 1.6-.1 3.1-.3 4.6-.6s3.2-.3 5.1-.1 3.5 1 4.7 2.3c2.5 2.3 5.9 2.7 10.2 1.2z" class="st0"/><path d="M88.6 175.4c-.8-1.9-1.2-4.9-1-9 .1-2.9-.2-5.8-.9-8.6-.8-2.8-2.8-5.3-6-7.5-5-3.3-9.8-4.7-14.4-4.2-1.4.1-2.7.3-3.9.6-1.1.3-2.2.5-3.2.6s-1.9.2-2.7.2-1.9.1-3.2.5c-1.4.3-3.9 1.7-7.4 4.3-1.9 1.3-3.8 2.4-5.6 3.1l-5.4 2.4c-4 1.8-7.5 4.4-10.4 8-3 3.7-4.6 7.4-4.9 10.9 0 1.5.1 3 .2 4.5.2 1.4.2 2.9.2 4.5 0 1.5-.3 3-.8 4.5-.5 1.4-1.1 3.2-1.8 5.3-.7 2.1-.5 3.7.8 4.8.7.6 1.3 1 1.8 1.1.7-.2 2.1-.8 3.5-3.1 1.4-2.4 1.1-4.5.9-6-.1-.8-.2-1.4-.1-2 .1-.5.8-1 1.4-1.1s1 .3.9.9c-.1.2 0 .8.1 1.4.3 1.7.7 4.2-1.2 7.2-1.1 1.9-2.4 3-3.5 3.7.3.3.6.8.9 1.4.5 1 1.2 3.2 2.2 6.6s3.6 6 7.6 7.8c1.8.8 3.7 1.3 5.7 1.6 2 .3 4.1.7 6.2 1.1 5.4 1.1 8 3.9 8 8.4v6.2c-.3 3.9-1.7 6.2-4.2 7-2.3.8-3.8 0-4.6-2.3-.4-.9-.6-1.9-.6-3.1-.1-1.2-.1-2.5-.1-3.9s-1-2.1-3-2.1c-.8 0-1.6.2-2.4.5-.8.3-1.4.7-1.8 1.3-.4.6-1 1.3-1.7 2-.7.8-2.2 1.5-4.3 2.2s-4.7 2.3-7.5 5c-1.3 1.3-2 2.7-2.1 4-.1 1.4-.1 2.8-.1 4.3.1 1.5.1 2.7-.1 3.6s0 1.7.7 2.4c.6.7 1.9.8 3.8.3l2.1-.6c.7-.2 1.4-.3 2-.3s1.4.5 2.4 1.6 2.3 2 3.9 2.8c1.6.7 3.4 1 5.3.8 1.9-.2 4.6-.7 8.2-1.6 3.5-.8 6.9-2 10-3.4 2.8-1.3 4.9-2.9 6.3-4.9.6-.8 1.1-1.5 1.4-2.2.3-.6.7-1.2 1.2-1.7s1.6-1.3 3.3-2.4c1.7-1.1 3.4-2.9 5-5.3s2.5-5.6 2.5-9.6c0-1.1.1-1.9.2-2.4s.2-1.2.4-1.9c.1-.7.3-1.6.5-2.6s.4-2.3.7-4c.9-4.6.5-8.4-1-11.4-.4-.7-.8-1.1-1.3-1.2s-1.1-.2-1.7-.3c-.6-.1-1.3-.2-2.1-.4-.8-.1-1.7-.6-2.8-1.4-1.1-.8-2.3-1.3-3.7-1.5-1.4-.2-2.7-.4-4-.6s-2.3-.2-3.1 0c-.7.2-1.4.3-2.1.5-.7.2-1.3.3-2.1.4-.7.1-1.6-.2-2.6-.8-1-.6-1.7-2.1-2.2-4.5-.1-1-.2-2-.2-3s-.1-1.9-.2-2.7c-.2-.8 0-2.3.6-4.4.6-2.1 1.7-4 3.5-5.8 1.3-1.2 2.9-1.9 4.7-2.2s2.9.2 3.4 1.4c.2.5.2 1.2-.2 2.1-.4.9-.7 1.9-1.1 2.9-1.2 3.2-1.1 5.6.5 7.1 1.5 1.5 3.5 2.3 5.9 2.4 2.4.1 4-.3 4.9-1.2.4-.5.7-.9 1-1.3.3-.4.9-.7 1.7-.9.8-.2 1.9-.3 3.3-.5 1.3-.2 2.7-.5 4.2-1 1.4-.5 2.8-1.2 4-2.2s2.1-2.5 2.6-4.4c.6-2 .7-3.5.5-4.5-.5-.9-1-2.3-1.8-4.2zm-31.8 54.3c.6-.1 1.2.1 1.2.6 0 1.5.8 1.7 1.3 1.9.2.1.3.1.5.2h.3c.9.1 2.8.4 3.1 2.3.1.6 1 1 1.8.9.9-.2 1.1-1.2 1.2-1.9.4-3.1 2.1-6 4-6.9.8-.4 1.7-.4 2.3 0 .3.2.5.2.5.2s.6-.3 1.2-2.3c1-3 .5-6.6.5-6.7-.1-.5.4-1 1-1.2s1.2 0 1.3.5c0 .2.6 4-.5 7.4-.7 2.2-1.6 3.4-2.9 4-.6.3-1.6.4-2.6-.2-.6.3-2 2.1-2.4 5-.4 3.1-2.8 3.8-3.5 4H65c-1.9.4-3.8-.5-4.1-2-.2-.9-.9-1.1-1.8-1.2-.4-.1-.7-.1-1-.3H58c-.7-.2-2.2-.7-2.3-3.1 0-.5.5-1 1.1-1.2zM172.6 166.1c-.1-.8-.1-1.6-.2-2.3-.1-.7-.2-1.5-.3-2.4s-.2-2-.4-3.4c-1-4.4-2.5-8.3-4.5-11.5-.6-.9-1.7-1.9-3.4-3-1.6-1.1-2.8-2.3-3.6-3.6-1.1-1.6-3.9-3.2-8.6-4.5-.9.1-2.3 0-4.4-.2-2.1-.2-3.8-.6-5.3-1.3-1.2-.7-2.8-1-4.7-.9-1.9.2-3.6.7-5 1.5s-2.6 1.4-3.6 1.8c-1 .4-2.1.7-3.3 1-1.2.3-2.5.6-3.7 1-1.3.4-2.5.7-3.6 1-1.2.3-2.2.6-3 .9-.8.3-2.1.8-3.8 1.6-1.7.8-3.7 2.8-6 6-2.3 3.1-4.2 6.9-5.7 11.1-2.5 7.4-3.6 13.7-3.5 19 0 3.8-.9 7.5-2.8 11-2.4 4.2-2.3 7.6.5 10.4 1.2 1 2 2 2.4 2.9s.5 2.6.2 5c-.3 2.5.2 5.2 1.7 8.2.5 1.3 1.6 2.2 3.2 2.8.5-.7 1.1-1.9 1.7-4.1 0-.1.8-2.5 0-5.6-.1-.5.3-1 .9-1.2s1.2 0 1.4.5c.9 3.5 0 6.3-.1 6.4-.7 2.7-1.7 4.6-2.9 5.6.2.5.3 1 .4 1.5.3 1.2 1.4 4.2 3.2 9.2 1.9 5 3.5 8.3 5 10 1.2 1.2 2.4 1.8 3.5 1.9 1.2.1 2.3.3 3.5.5s2.2.6 3.3 1.1c1 .5 2.8.8 5.4.7 5.8 0 10.6-1.4 14.3-4.4 1.1-.9 2-1.6 2.8-2.2.7-.6 1.5-.9 2.2-.9s1.6.3 2.6 1.1c1 .7 2.5 1.9 4.5 3.6 2 1.6 3.7 2.6 5 2.7 2 .1 4.7-1.8 8.3-5.8 1.3-1.5 2.5-2.8 3.5-3.8s1.4-2.2 1.4-3.6c-.1-1.4-.5-2.4-1.3-3.2-.8-.7-2.1-1.7-4-3s-3.3-3.4-4.3-6.4c.1-.3.3-1.1.5-2.5s1.8-5.2 4.7-11.5c1.3-3 2-5.4 1.9-7.3-.1-1.9.2-3.6.8-5.2.6-1.5 1.3-3 2.2-4.4s1.4-3 1.7-4.8c.3-1.7.2-6.1-.4-13.2-.1-1.7-.2-3-.3-3.8zm-20.1 10.3c-.4.2-.9.3-1.3.1-.3.5-.6 1.8-.8 4.6-.3 4.7-2.5 6.5-4.2 7.3-.7.3-1.4.5-2 .5h-.3c.4 2.1-.6 4.9-2.8 8.3-2.4-.4-4.2-.2-5.3.7-.7.8-1.6 1.6-2.6 2.5-1 .9-1.5 1.8-1.5 2.5l.3 6c0 3.2-.7 4.8-1.9 5-1.3.2-2.1-.7-2.5-2.4-.2-.7-.4-1.5-.6-2.3s-.6-1.7-1.2-2.7-.8-2.2-.6-3.4c.2-1.3-.2-2.7-1.2-4.2s-1.2-4.5-.7-9c.1-1.7.3-3.4.7-4.9.3-1.5.6-2.6.8-3.3.2-.7.5-1.6.8-2.7.3-1.1.7-2.3 1.1-3.5s1-2.4 1.7-3.6c.7-1.2 1.7-2.3 3-3.2 1.3-1 3-1.3 4.9-.9 1.9.4 3.1 1 3.5 1.9s.8 1.5 1.3 1.8c.4.3.8.6 1.1 1s.6.9.8 1.4c.2.6.3 1.7.1 3.3-.2 1.7-.5 3.3-1 5s-.3 3.2.7 4.5c.1.1.1.2.2.2.6.1 1.5.1 2.2-.2 1.6-.7 2.6-2.6 2.8-5.5.4-5.4 1.5-6.4 2.6-6.8 1-.3 1.8.1 2.2.6.4.5.3 1.1-.3 1.4zM262 149.3c.2-5.3 0-9.1-.8-11.4-.4-1.2-.8-2-1.3-2.5s-1.2-1.1-2.2-1.8-3-1-6.2-.9c-1.2.1-2.6.2-4 .3-1.5.1-3.4 0-5.7-.3s-4.3-.5-5.9-.7c-1.6-.2-3.1.2-4.6 1.2s-2.1 2.6-1.8 4.8c.2 2.2.5 4.1.7 5.8.7 4.8.6 10.8-.5 17.8-.5 3.3-.7 6.7-.5 10.1 0 1.9.1 4.1.3 6.5s.6 5.9 1.1 10.5c.6 4.6.3 8.3-.9 10.9-1.2 2.7-2.6 4-4.4 4.1-1.8.1-3.3-.6-4.5-2.2-1.2-1.5-1.9-3-1.9-4.3-.1-1.3-.4-2.4-1-3.3-.1-.3-.3-.6-.6-.9-.2-.3-.4-.8-.6-1.6-.4-1.7-.5-3.6-.3-5.5-.1 0-.2.1-.3.1-.2 0-.4.1-.6.1-2.3 0-4-2.3-4.6-3-.3-.4-.1-1 .4-1.3.6-.3 1.3-.1 1.6.3 1.7 2.2 2.5 2.1 2.6 2.1.4-.1.9-.5 1.3-1.2.2-.9.4-1.9.7-2.8 1.2-4.2 1.6-7.6 1.1-10.4-.1-.8-.3-1.7-.5-2.8s-.3-2.5-.3-4.2c.2-5.2.5-10.4.7-15.5 0-6.7-1.2-11.2-3.5-13.5-1.1-1.3-3.1-2-6-2-1.9.2-3.8.3-5.7.5-1 .1-2.7.1-5.2-.1-2.5-.1-4.8-.1-7 .2-4.3.4-6.8 3.1-7.5 7.9-.2 1.5-.5 3.4-.6 5.4-.2 2.1-.5 4.4-1 7-.9 4.8-1 9-.4 12.4.2 1.7.6 3.5 1 5.2.4 1.8.9 4 1.5 6.8.5 2.8.3 6.5-.8 11.3-.4 1.6-.7 3.1-1 4.5s-.3 2.7.1 4.2c.4 1.4 1.1 3.2 2.3 5.3s2.1 4.6 2.7 7.4c.7 2.9 1.3 5.5 1.9 7.8 1.6 5.5 4.1 10 7.7 13.6 4.4 4.4 10.8 5.9 19.1 4.6 1.7-.3 3.2-.5 4.5-.8 1-.2 1.8-.3 2.4-.3-.8-4.5 1.5-9.5 1.6-9.7.2-.5.9-.7 1.5-.5s.9.7.7 1.2c0 .1-2.8 6-1 10.2.4 1 .9 1.9 1.5 2.8l.9.9c.6.6 1.4 1 2.3 1.2.9.2 2.5-.3 4.7-1.6.9-.5 1.7-1.1 2.4-1.6s1.5-.9 2.2-1.2c.7-.3 1.8-.5 3.3-.4 1.5 0 2.8-.3 4-1 2.7-1.2 4.5-3.8 5.3-7.8.5-2.6 1.4-5.2 2.7-8 .6-1.1 1.2-2.3 1.8-3.5.6-1.2 1.2-2.9 1.9-5.2.7-2.3 1.4-4.6 2.3-7 .8-2.4 1.2-5 1-7.8s0-5.8.4-9c.5-3.2.5-8 0-14.4-.6-6.7-.7-14.2-.5-23zm-8.9-9.2s-1.6.3-2 2.2v.2c-.6 2.3-1.1 4.5-4.8 4.3h-.3c-1.1-.1-2.1-.5-2.8-1.2-1.5-1.5-1.1-3.8-1.1-4.1.2-.8.1-1.7-2.2-2.7-2.2-.9-4.1-.9-4.1-.9-.7 0-1.2-.4-1.3-.9s.4-.9 1.1-1c.1 0 2.6-.1 5.3 1.1 2.8 1.2 3.9 2.6 3.5 4.6-.1.7-.1 2 .6 2.6.3.3.6.4 1.1.4 1.8.2 2.1-.3 2.7-3v-.2c.7-3 3.6-3.5 3.7-3.5.6-.1 1.3.2 1.4.7.2.8-.1 1.3-.8 1.4zM321.1 150.1c.2-1.3.3-2.6.3-3.8s-.2-2.4-.7-3.5c-.4-1.1-1.5-2.2-3.3-3.3-1.8-1-4.3-1.6-7.7-1.6h-4.4c-1.5 0-2.9 0-4.1-.2-1.6-.2-4.9-1.1-10-2.7-1.9-.6-4-1.2-6.3-1.6-2.2-.5-4.7-.8-7.3-.8-2.6-.1-4.3.7-5 2.1-.2.7-.4 1.4-.5 2.3-.1.9-.5 1.9-1.3 3.1-.7 1.2-.9 2.9-.5 5.1.4 2.2.4 4.7 0 7.3-.2 2.7.4 4.7 2 6.1 1.6 1.4 3.3 2.2 5.1 2.4 1.8.2 2.9.7 3.3 1.5.1.4.2 1 .2 1.7 0 .8-.1 1.8-.2 3.1-.1 1.8.1 5 .6 9.6.4 2.3.4 5.3.2 8.9-.3 6 .3 10.2 1.9 12.6 1.6 2 1.8 4.2.6 6.7-.7 1.6-1.1 4.6-1.2 8.8-.1 1.5-.2 3.2-.3 4.9-.1 1.8-.4 2.8-1.2 3-.6 0-1.3.1-2 .2s-1.5.2-2.4.3c-.9.2-1.6.5-2.2 1.1s-1 1.9-1.3 4c-.2 2.1-.2 4.3.2 6.6.8 5.8 2.2 8.8 4.4 9 1.6.2 3.3.6 5.1 1.4.6.3 1.2.4 1.8.6.6.1 1.4.1 2.5-.1 1-.2 1.9-.2 2.7-.1.8.1 2 .3 3.5.6s3.4.1 5.6-.5c1.5-.4 2.8-.6 4-.7s2.8-.2 4.7-.4c1.9-.2 3.6-.7 5.2-1.5 1.5-1.1 2.3-2.2 2.5-3.4.1-.7.2-1.5.3-2.4.1-.9.3-2.3.8-3.9.8-2.8.8-4.9 0-6-.5-.6-1.5-1-3.1-1.2-1.7-.3-3-1.3-3.8-3 .9-5.2 1.4-10.9 1.4-17.1-.2-8-.3-16.1-.5-24.1 0-8.3.4-13.1 1.4-14.2.6-.6 1.3-.8 2.1-.8.8.1 1.6.1 2.4.1s1.6-.1 2.4-.4c.8-.3 1.7-1.4 2.7-3.5 1-2 .9-4.8-.2-8.4-.5-1.2-.6-2.6-.4-3.9zm-22.6 85.8c-2.1.6-4.3-.7-5.4-1.3-.1 0-.1-.1-.2-.1-.3-.1-1-.6-1.4-.5-.1 0-.5.2-1 1.2-.8 1.7-2.8 2.8-4.7 2.6h-.3c-1.3-.2-2.2-1.1-2.4-2.2-.1-.7-.1-1.7-.1-2.6 0-1.9 0-4.2-.9-5.4-1.2-1.5-3.2-1.4-3.2-1.4-.6 0-1.2-.4-1.4-.9-.1-.5.3-1 .9-1 .1 0 3.6-.1 5.6 2.5 1.3 1.7 1.3 4.2 1.3 6.5 0 .9 0 1.8.1 2.4.1.3.2.3.3.4.7.1 2-.4 2.6-1.6.6-1.3 1.3-2 2.4-2.2 1.2-.2 2.4.3 3.4.8.1 0 .1.1.2.1.8.4 2.2 1.3 3.2 1 .5-.2 1.5-.8 1.7-3.7.1-.5.6-.8 1.3-.7.6.1 1.1.6 1.1 1.1-.4 2.9-1.4 4.5-3.1 5zm6.9-91.7c-.7 1.1-2.8 1.3-6.5.8-.3 0-.7-.1-1-.1-9.3-1.4-14.4-7.3-14.6-7.6-.4-.5-.3-1 .3-1.3.5-.2 1.2-.1 1.6.4 0 .1 4.7 5.4 12.8 6.6 4.8.7 5.4 0 5.4 0s0-.2-.1-.3c-.4-.5-.3-1 .2-1.3.5-.2 1.2-.1 1.6.4.3.5.8 1.5.3 2.4zM406 187.2c-1.2-4.3-2-7.4-2.4-9.4s-1.2-3.7-2.5-5c-1.3-1.4-2.1-2.4-2.4-2.9-.3-.6-.6-1-.8-1.5-.2-.4-.6-.8-1-1.1-.4-.4-1.3-.8-2.7-1.5-1.4-.6-2.5-1.4-3.3-2.4s-1.6-2-2.2-2.9c-.7-.9-1.3-1.8-2.1-2.6-.7-.8-1.8-1.3-3.3-1.7s-2.6-.8-3.4-1.4c-.8-.5-1.6-1.1-2.4-1.6s-2-1.2-3.4-1.8c-1.4-.7-3.9-1.5-7.5-2.3s-7.3-1-11.1-.6c-1.2.2-2.4.3-3.5.1-1.1-.1-2.9-1-5.2-2.5-2.3-1.5-4.9-2.4-7.7-2.6-1.2 0-2.3.1-3.2.3-1 .3-1.9.6-2.7.9-.8.4-1.6 1.6-2.1 3.6-.6 2-1.2 3.1-2 3.3-.5.1-.6.7-.3 1.8s.4 2 .4 2.9c-.1.9.1 2.2.6 3.8.4 1.7.6 3.3.5 4.8-.1 1.6.2 3 1 4.3s1.4 3.3 1.8 5.9c.2 1.1.6 2.3 1 3.6s1 2.7 1.7 4 1.1 2.7 1.1 4-.1 2.8-.2 4.3c-.2 1.5-.3 3.2-.5 4.9s-.2 3.7 0 6 .1 4.3-.1 6.2c-.3 1.8-.1 3.9.7 6.2.7 2.3.6 5.2-.5 8.8-.4 1.5-.7 3-1.1 4.6s-.6 3.8-.6 6.5 1 5.1 2.9 7.2c.9 1 2.9 2.3 6 3.9.3 4.5 2.3 7.4 6.2 8.7 1.6.6 3.1.9 4.6.9s2.7-.2 3.5-.5 1.7-.4 2.5-.5c.8 0 1.7-.1 2.6-.1.9-.1 1.8-.4 2.8-.8 1-.5 2-1.3 3.2-2.5s3.8-2.6 7.9-4.2c3.2 1.6 6 1.1 8.2-1.4.8-1.1 1.5-2.3 2-3.6.5-1.2.9-2.4 1.2-3.5.3-1.1 1.1-2.5 2.5-4.3.6-.7 1.3-1.5 2-2.3.8-.8 1.8-2.2 3.1-4.1 1.3-1.9 2.3-4.3 3.1-7.2.8-2.9 1.6-5.3 2.5-7.2.9-1.9 1.6-4.3 2.3-7.2.2-1.6.8-3.5 1.7-5.8 1.7-4 1.9-8.2.6-12.5zm-46.4-6.7c-1.1 3.2-3.2 3.3-4.5 3.1-.1 0-.2 0-.2-.1-2.1-.6-3.8-2.5-4-3.9 0-.3-.1-.5-.1-.8-.3-2.1-.5-3.8-3.2-5.2-1.1-.6-1.8-.7-2.6-.8-2.1-.3-3.6-.8-6-4.3-3.6-5.3-2.6-9.7-2.6-9.9.1-.5.7-.7 1.3-.5.6.2 1 .8.9 1.2 0 .1-.9 4 2.3 8.5 1.9 2.7 2.6 2.8 4 3.1.9.2 2.1.4 3.6 1.2 3.9 2.1 4.3 4.7 4.6 7 0 .2.1.5.1.7.1.6 1 1.6 1.9 1.8s1.8-.6 2.4-2.2c.2-.6.4-1.3.6-1.9 1.3-3.8 2.2-6.5 4.3-6.7.6 0 1.6.1 2.8 1.1.9.7 3.1 2.4 5.3 2.4 1.5 0 2.7-.7 3.6-2.2.2-.4.9-.5 1.5-.1.6.3.9.9.6 1.4-1.2 2-2.9 2.9-5.1 2.9-2.3 0-4.9-1.2-7.3-3.2-.3-.2-.5-.4-.6-.3-1 .1-2.1 3.3-2.9 5.7-.3.7-.5 1.4-.7 2zm17.6 24.2c-.6 1.4-.9 2.4-1 3.1s-.1 1.4-.3 1.9c-.1.6-.3 1.3-.4 2-.2.7-.6 1.8-1.3 3.3-.7 1.5-1.7 2.8-2.9 4.1-1.2 1.3-2 2.7-2.3 4.3-.3 1.6-.8 2.7-1.5 3.2-.7.6-1.4.8-2.2.7-.7-.1-1.4-.6-2-1.5s-.9-2.2-.9-4 .1-3.5.4-5.3.6-3.5.9-5.3.5-3.6.6-5.5-.2-4.4-.8-7.4c-.6-3.1-1.1-5.8-1.3-8.2-.3-2.4.2-4 1.4-4.8 1.2-.8 2.4-.8 3.8 0 .6.4 1.2.9 1.9 1.4.7.5 1.4 1 2.3 1.4 1.9.9 3.2 2.1 3.7 3.6.5 1.4.9 2.9 1.2 4.5.3 1.6.6 3 1 4.3.3 1.4.3 2.8-.3 4.2z" class="st1"/></g></svg>